<svg width="147" height="24" viewBox="0 0 147 24" fill="none" xmlns="http://www.w3.org/2000/svg">
<path d="M14.875 7.83993C14.875 9.1466 14.6766 10.2316 14.28 11.0949C13.8833 11.9583 13.265 12.7399 12.425 13.4399L15.33 22.6799H8.85496L6.68496 14.8399H5.87996V22.6799H-3.89405e-05V0.94493H8.11996C10.4533 0.94493 12.1566 1.49326 13.23 2.58993C14.3266 3.6866 14.875 5.4366 14.875 7.83993ZM6.78996 11.1649C7.39663 11.1649 7.82829 10.9899 8.08496 10.6399C8.34163 10.2899 8.46996 9.65993 8.46996 8.74993C8.46996 7.8166 8.34163 7.17493 8.08496 6.82493C7.82829 6.4516 7.40829 6.26493 6.82496 6.26493H5.87996V11.1649H6.78996ZM29.4399 10.2899L29.2649 17.5349C29.2649 17.9783 29.3699 18.2816 29.5799 18.4449C29.8132 18.5849 30.1982 18.6549 30.7349 18.6549L30.2099 22.8899C28.8566 22.9833 28.1099 23.0299 27.9699 23.0299C26.2432 23.0299 25.1465 22.4349 24.6799 21.2449H24.5049C23.6415 22.4349 22.3115 23.0299 20.5149 23.0299C19.1382 23.0299 18.0765 22.5866 17.3299 21.6999C16.6065 20.8133 16.2449 19.5999 16.2449 18.0599C16.2449 16.1233 16.8399 14.7816 18.0299 14.0349C19.2432 13.2883 21.1449 12.7983 23.7349 12.5649V11.7249C23.7349 11.0716 23.4082 10.7449 22.7549 10.7449C21.6349 10.7449 19.8849 11.0833 17.5049 11.7599L16.6299 6.64993C19.6165 5.87993 22.1015 5.49493 24.0849 5.49493C26.0682 5.49493 27.4566 5.87993 28.2499 6.64993C29.0432 7.41993 29.4399 8.63326 29.4399 10.2899ZM22.6849 18.9349C23.5482 18.9349 23.9799 18.4799 23.9799 17.5699V15.8549C23.1165 15.9716 22.4982 16.1583 22.1249 16.4149C21.7749 16.6483 21.5999 17.0566 21.5999 17.6399C21.5999 18.5033 21.9615 18.9349 22.6849 18.9349ZM46.889 22.8899L44.544 23.0299C42.7474 23.0299 41.6507 22.4349 41.254 21.2449H41.079C40.309 22.4349 39.1307 23.0299 37.544 23.0299C35.444 23.0299 33.9624 22.2949 33.099 20.8249C32.259 19.3549 31.839 17.1733 31.839 14.2799C31.839 11.3633 32.3174 9.16993 33.274 7.69993C34.2307 6.22993 35.6074 5.49493 37.404 5.49493C38.6407 5.49493 39.5974 5.7866 40.274 6.36993V0.244931H46.119V17.5349C46.119 17.9783 46.2124 18.2816 46.399 18.4449C46.5857 18.5849 46.924 18.6549 47.414 18.6549L46.889 22.8899ZM38.944 10.4299C38.454 10.4299 38.1274 10.7333 37.964 11.3399C37.8007 11.9233 37.719 12.7749 37.719 13.8949C37.719 14.9916 37.7307 15.7383 37.754 16.1349C37.7774 16.5316 37.824 16.9399 37.894 17.3599C37.9874 17.7566 38.1157 18.0366 38.279 18.1999C38.4657 18.3399 38.7574 18.4099 39.154 18.4099C39.574 18.4099 40.0057 18.3049 40.449 18.0949V10.8499C39.959 10.5699 39.4574 10.4299 38.944 10.4299ZM54.6437 22.6799H48.8687V6.08993H54.6437V22.6799ZM49.3237 4.75993C48.8337 4.33993 48.5887 3.66326 48.5887 2.72993C48.5887 1.7966 48.8337 1.10826 49.3237 0.664931C49.8137 0.221598 50.6187 -6.84261e-05 51.7387 -6.84261e-05C52.8587 -6.84261e-05 53.6637 0.221598 54.1537 0.664931C54.6437 1.10826 54.8887 1.7966 54.8887 2.72993C54.8887 3.63993 54.6437 4.3166 54.1537 4.75993C53.6637 5.17993 52.8587 5.38993 51.7387 5.38993C50.6187 5.38993 49.8137 5.17993 49.3237 4.75993ZM56.5835 14.2449C56.5835 11.1649 57.1668 8.9366 58.3335 7.55993C59.5235 6.18326 61.3668 5.49493 63.8635 5.49493C66.3835 5.49493 68.2151 6.1716 69.3585 7.52493C70.5018 8.87826 71.0735 11.1066 71.0735 14.2099C71.0735 17.2899 70.5135 19.5299 69.3935 20.9299C68.2735 22.3299 66.4418 23.0299 63.8985 23.0299C61.3551 23.0299 59.5001 22.3299 58.3335 20.9299C57.1668 19.5299 56.5835 17.3016 56.5835 14.2449ZM64.9835 10.9199C64.8435 10.4533 64.4701 10.2199 63.8635 10.2199C63.2568 10.2199 62.8718 10.4533 62.7085 10.9199C62.5451 11.3866 62.4635 12.3666 62.4635 13.8599V14.6999C62.4635 16.3566 62.5451 17.4299 62.7085 17.9199C62.8718 18.4099 63.2451 18.6549 63.8285 18.6549C64.4351 18.6549 64.8201 18.4099 64.9835 17.9199C65.1468 17.4299 65.2285 16.4266 65.2285 14.9099V13.8949C65.2285 12.3783 65.1468 11.3866 64.9835 10.9199ZM86.4738 7.41993C84.2338 6.74326 82.5888 6.40493 81.5388 6.40493C80.5121 6.40493 79.8004 6.85993 79.4038 7.76993C79.0304 8.67993 78.8438 10.1266 78.8438 12.1099C78.8438 14.0699 79.0188 15.5049 79.3688 16.4149C79.7421 17.3016 80.4888 17.7449 81.6088 17.7449C81.9354 17.7449 82.5654 17.6516 83.4988 17.4649V14.8049H81.9238V10.6749H88.6088V22.6799H84.4788L83.9188 21.5599H83.7788C83.3821 21.8866 83.0671 22.1316 82.8338 22.2949C82.1804 22.7849 81.2588 23.0299 80.0688 23.0299C75.1921 23.0299 72.7538 19.3433 72.7538 11.9699C72.7538 8.28326 73.3954 5.4716 74.6788 3.53493C75.9621 1.57493 78.1204 0.59493 81.1538 0.59493C83.5804 0.59493 85.6688 0.968264 87.4188 1.71493L86.4738 7.41993ZM95.2082 23.0299C92.4315 23.0299 91.0432 21.4899 91.0432 18.4099V5.91493H96.9932V16.9749C96.9932 17.5583 97.2498 17.8499 97.7632 17.8499C98.4165 17.8499 98.9648 17.6866 99.4082 17.3599V5.91493H105.288V22.6099H99.7232V21.3849H99.5832C98.2998 22.4816 96.8415 23.0299 95.2082 23.0299ZM113.296 22.6799H107.521V6.08993H113.296V22.6799ZM107.976 4.75993C107.486 4.33993 107.241 3.66326 107.241 2.72993C107.241 1.7966 107.486 1.10826 107.976 0.664931C108.466 0.221598 109.271 -6.84261e-05 110.391 -6.84261e-05C111.511 -6.84261e-05 112.316 0.221598 112.806 0.664931C113.296 1.10826 113.541 1.7966 113.541 2.72993C113.541 3.63993 113.296 4.3166 112.806 4.75993C112.316 5.17993 111.511 5.38993 110.391 5.38993C109.271 5.38993 108.466 5.17993 107.976 4.75993ZM130.356 22.8899L128.011 23.0299C126.214 23.0299 125.117 22.4349 124.721 21.2449H124.546C123.776 22.4349 122.597 23.0299 121.011 23.0299C118.911 23.0299 117.429 22.2949 116.566 20.8249C115.726 19.3549 115.306 17.1733 115.306 14.2799C115.306 11.3633 115.784 9.16993 116.741 7.69993C117.697 6.22993 119.074 5.49493 120.871 5.49493C122.107 5.49493 123.064 5.7866 123.741 6.36993V0.244931H129.586V17.5349C129.586 17.9783 129.679 18.2816 129.866 18.4449C130.052 18.5849 130.391 18.6549 130.881 18.6549L130.356 22.8899ZM122.411 10.4299C121.921 10.4299 121.594 10.7333 121.431 11.3399C121.267 11.9233 121.186 12.7749 121.186 13.8949C121.186 14.9916 121.197 15.7383 121.221 16.1349C121.244 16.5316 121.291 16.9399 121.361 17.3599C121.454 17.7566 121.582 18.0366 121.746 18.1999C121.932 18.3399 122.224 18.4099 122.621 18.4099C123.041 18.4099 123.472 18.3049 123.916 18.0949V10.8499C123.426 10.5699 122.924 10.4299 122.411 10.4299ZM139.196 10.4999C138.589 10.4999 138.192 10.7099 138.006 11.1299C137.819 11.5266 137.726 12.1449 137.726 12.9849H140.771V12.1449C140.771 11.0483 140.246 10.4999 139.196 10.4999ZM139.336 5.49493C141.739 5.49493 143.454 6.07826 144.481 7.24493C145.531 8.38826 146.056 10.0333 146.056 12.1799C146.056 12.4599 145.974 13.7199 145.811 15.9599H137.831C137.831 17.7099 138.636 18.5849 140.246 18.5849C141.016 18.5849 142.521 18.3166 144.761 17.7799L145.251 22.1199C143.291 22.7266 141.331 23.0299 139.371 23.0299C136.967 23.0299 135.124 22.2483 133.841 20.6849C132.557 19.0983 131.916 16.9516 131.916 14.2449C131.916 8.4116 134.389 5.49493 139.336 5.49493Z" fill="#43000B"/>
</svg>
