<svg width="147" height="24" viewBox="0 0 147 24" fill="none" xmlns="http://www.w3.org/2000/svg">
<path d="M14.875 7.83999C14.875 9.14666 14.6766 10.2317 14.28 11.095C13.8833 11.9583 13.265 12.74 12.425 13.44L15.33 22.68H8.85496L6.68496 14.84H5.87996V22.68H-3.89405e-05V0.944991H8.11996C10.4533 0.944991 12.1566 1.49332 13.23 2.58999C14.3266 3.68666 14.875 5.43666 14.875 7.83999ZM6.78996 11.165C7.39663 11.165 7.82829 10.99 8.08496 10.64C8.34163 10.29 8.46996 9.65999 8.46996 8.74999C8.46996 7.81666 8.34163 7.17499 8.08496 6.82499C7.82829 6.45166 7.40829 6.26499 6.82496 6.26499H5.87996V11.165H6.78996ZM29.4399 10.29L29.2649 17.535C29.2649 17.9783 29.3699 18.2817 29.5799 18.445C29.8132 18.585 30.1982 18.655 30.7349 18.655L30.2099 22.89C28.8566 22.9833 28.1099 23.03 27.9699 23.03C26.2432 23.03 25.1465 22.435 24.6799 21.245H24.5049C23.6415 22.435 22.3115 23.03 20.5149 23.03C19.1382 23.03 18.0765 22.5867 17.3299 21.7C16.6065 20.8133 16.2449 19.6 16.2449 18.06C16.2449 16.1233 16.8399 14.7817 18.0299 14.035C19.2432 13.2883 21.1449 12.7983 23.7349 12.565V11.725C23.7349 11.0717 23.4082 10.745 22.7549 10.745C21.6349 10.745 19.8849 11.0833 17.5049 11.76L16.6299 6.64999C19.6165 5.87999 22.1015 5.49499 24.0849 5.49499C26.0682 5.49499 27.4566 5.87999 28.2499 6.64999C29.0432 7.41999 29.4399 8.63333 29.4399 10.29ZM22.6849 18.935C23.5482 18.935 23.9799 18.48 23.9799 17.57V15.855C23.1165 15.9717 22.4982 16.1583 22.1249 16.415C21.7749 16.6483 21.5999 17.0567 21.5999 17.64C21.5999 18.5033 21.9615 18.935 22.6849 18.935ZM46.889 22.89L44.544 23.03C42.7474 23.03 41.6507 22.435 41.254 21.245H41.079C40.309 22.435 39.1307 23.03 37.544 23.03C35.444 23.03 33.9624 22.295 33.099 20.825C32.259 19.355 31.839 17.1733 31.839 14.28C31.839 11.3633 32.3174 9.16999 33.274 7.69999C34.2307 6.22999 35.6074 5.49499 37.404 5.49499C38.6407 5.49499 39.5974 5.78666 40.274 6.36999V0.244992H46.119V17.535C46.119 17.9783 46.2124 18.2817 46.399 18.445C46.5857 18.585 46.924 18.655 47.414 18.655L46.889 22.89ZM38.944 10.43C38.454 10.43 38.1274 10.7333 37.964 11.34C37.8007 11.9233 37.719 12.775 37.719 13.895C37.719 14.9917 37.7307 15.7383 37.754 16.135C37.7774 16.5317 37.824 16.94 37.894 17.36C37.9874 17.7567 38.1157 18.0367 38.279 18.2C38.4657 18.34 38.7574 18.41 39.154 18.41C39.574 18.41 40.0057 18.305 40.449 18.095V10.85C39.959 10.57 39.4574 10.43 38.944 10.43ZM54.6437 22.68H48.8687V6.08999H54.6437V22.68ZM49.3237 4.75999C48.8337 4.33999 48.5887 3.66332 48.5887 2.72999C48.5887 1.79666 48.8337 1.10833 49.3237 0.664992C49.8137 0.221659 50.6187 -7.39098e-06 51.7387 -7.39098e-06C52.8587 -7.39098e-06 53.6637 0.221659 54.1537 0.664992C54.6437 1.10833 54.8887 1.79666 54.8887 2.72999C54.8887 3.63999 54.6437 4.31666 54.1537 4.75999C53.6637 5.17999 52.8587 5.38999 51.7387 5.38999C50.6187 5.38999 49.8137 5.17999 49.3237 4.75999ZM56.5835 14.245C56.5835 11.165 57.1668 8.93666 58.3335 7.55999C59.5235 6.18333 61.3668 5.49499 63.8635 5.49499C66.3835 5.49499 68.2151 6.17166 69.3585 7.52499C70.5018 8.87832 71.0735 11.1067 71.0735 14.21C71.0735 17.29 70.5135 19.53 69.3935 20.93C68.2735 22.33 66.4418 23.03 63.8985 23.03C61.3551 23.03 59.5001 22.33 58.3335 20.93C57.1668 19.53 56.5835 17.3017 56.5835 14.245ZM64.9835 10.92C64.8435 10.4533 64.4701 10.22 63.8635 10.22C63.2568 10.22 62.8718 10.4533 62.7085 10.92C62.5451 11.3867 62.4635 12.3667 62.4635 13.86V14.7C62.4635 16.3567 62.5451 17.43 62.7085 17.92C62.8718 18.41 63.2451 18.655 63.8285 18.655C64.4351 18.655 64.8201 18.41 64.9835 17.92C65.1468 17.43 65.2285 16.4267 65.2285 14.91V13.895C65.2285 12.3783 65.1468 11.3867 64.9835 10.92ZM86.4738 7.41999C84.2338 6.74333 82.5888 6.40499 81.5388 6.40499C80.5121 6.40499 79.8004 6.85999 79.4038 7.76999C79.0304 8.67999 78.8438 10.1267 78.8438 12.11C78.8438 14.07 79.0188 15.505 79.3688 16.415C79.7421 17.3017 80.4888 17.745 81.6088 17.745C81.9354 17.745 82.5654 17.6517 83.4988 17.465V14.805H81.9238V10.675H88.6088V22.68H84.4788L83.9188 21.56H83.7788C83.3821 21.8867 83.0671 22.1317 82.8338 22.295C82.1804 22.785 81.2588 23.03 80.0688 23.03C75.1921 23.03 72.7538 19.3433 72.7538 11.97C72.7538 8.28333 73.3954 5.47166 74.6788 3.53499C75.9621 1.57499 78.1204 0.594991 81.1538 0.594991C83.5804 0.594991 85.6688 0.968325 87.4188 1.71499L86.4738 7.41999ZM95.2082 23.03C92.4315 23.03 91.0432 21.49 91.0432 18.41V5.91499H96.9932V16.975C96.9932 17.5583 97.2498 17.85 97.7632 17.85C98.4165 17.85 98.9648 17.6867 99.4082 17.36V5.91499H105.288V22.61H99.7232V21.385H99.5832C98.2998 22.4817 96.8415 23.03 95.2082 23.03ZM113.296 22.68H107.521V6.08999H113.296V22.68ZM107.976 4.75999C107.486 4.33999 107.241 3.66332 107.241 2.72999C107.241 1.79666 107.486 1.10833 107.976 0.664992C108.466 0.221659 109.271 -7.39098e-06 110.391 -7.39098e-06C111.511 -7.39098e-06 112.316 0.221659 112.806 0.664992C113.296 1.10833 113.541 1.79666 113.541 2.72999C113.541 3.63999 113.296 4.31666 112.806 4.75999C112.316 5.17999 111.511 5.38999 110.391 5.38999C109.271 5.38999 108.466 5.17999 107.976 4.75999ZM130.356 22.89L128.011 23.03C126.214 23.03 125.117 22.435 124.721 21.245H124.546C123.776 22.435 122.597 23.03 121.011 23.03C118.911 23.03 117.429 22.295 116.566 20.825C115.726 19.355 115.306 17.1733 115.306 14.28C115.306 11.3633 115.784 9.16999 116.741 7.69999C117.697 6.22999 119.074 5.49499 120.871 5.49499C122.107 5.49499 123.064 5.78666 123.741 6.36999V0.244992H129.586V17.535C129.586 17.9783 129.679 18.2817 129.866 18.445C130.052 18.585 130.391 18.655 130.881 18.655L130.356 22.89ZM122.411 10.43C121.921 10.43 121.594 10.7333 121.431 11.34C121.267 11.9233 121.186 12.775 121.186 13.895C121.186 14.9917 121.197 15.7383 121.221 16.135C121.244 16.5317 121.291 16.94 121.361 17.36C121.454 17.7567 121.582 18.0367 121.746 18.2C121.932 18.34 122.224 18.41 122.621 18.41C123.041 18.41 123.472 18.305 123.916 18.095V10.85C123.426 10.57 122.924 10.43 122.411 10.43ZM139.196 10.5C138.589 10.5 138.192 10.71 138.006 11.13C137.819 11.5267 137.726 12.145 137.726 12.985H140.771V12.145C140.771 11.0483 140.246 10.5 139.196 10.5ZM139.336 5.49499C141.739 5.49499 143.454 6.07833 144.481 7.24499C145.531 8.38833 146.056 10.0333 146.056 12.18C146.056 12.46 145.974 13.72 145.811 15.96H137.831C137.831 17.71 138.636 18.585 140.246 18.585C141.016 18.585 142.521 18.3167 144.761 17.78L145.251 22.12C143.291 22.7267 141.331 23.03 139.371 23.03C136.967 23.03 135.124 22.2483 133.841 20.685C132.557 19.0983 131.916 16.9517 131.916 14.245C131.916 8.41166 134.389 5.49499 139.336 5.49499Z" fill="white"/>
</svg>
